HIERARCHY
ROOT Hips
{
	OFFSET 53.234699 -6.996596 96.045898
	CHANNELS 6 Xposition Yposition Zposition Xrotation Yrotation Zrotation
	JOINT spine
	{
		OFFSET 0.000000 -0.467660 8.132492
		CHANNELS 3 Xrotation Yrotation Zrotation
		JOINT spine1
		{
			OFFSET 0.000000 -0.000001 10.349800
			CHANNELS 3 Xrotation Yrotation Zrotation
			JOINT spine2
			{
				OFFSET 0.000000 -0.000002 9.916992
				CHANNELS 3 Xrotation Yrotation Zrotation
				JOINT Neck
				{
					OFFSET 0.000000 -1.213904 25.461006
					CHANNELS 3 Xrotation Yrotation Zrotation
					JOINT Head
					{
						OFFSET 0.000000 -0.000001 7.692444
						CHANNELS 3 Xrotation Yrotation Zrotation
						End Site
						{
							OFFSET 0.000000 6.140627 18.619995
						}
					}
				}
				JOINT RightShoulder
				{
					OFFSET -4.175751 0.581443 10.709602
					CHANNELS 3 Xrotation Yrotation Zrotation
					JOINT RightArm
					{
						OFFSET 0.000000 -0.000002 14.046600
						CHANNELS 3 Xrotation Yrotation Zrotation
						JOINT RightArmRoll
						{
							OFFSET 0.000000 -0.000001 7.090973
							CHANNELS 3 Xrotation Yrotation Zrotation
							JOINT RightForeArm
							{
								OFFSET 0.000000 -0.000003 20.653503
								CHANNELS 3 Xrotation Yrotation Zrotation
								JOINT RightForeArmRoll
								{
									OFFSET 0.000000 -0.000001 7.957184
									CHANNELS 3 Xrotation Yrotation Zrotation
									JOINT RightHand
									{
										OFFSET 0.000000 -0.000003 15.968292
										CHANNELS 3 Xrotation Yrotation Zrotation
										End Site
										{
											OFFSET 0.000000 0.000000 0.100006
										}
									}
								}
							}
						}
					}
				}
				JOINT LeftShoulder
				{
					OFFSET 4.175751 0.581443 10.709602
					CHANNELS 3 Xrotation Yrotation Zrotation
					JOINT LeftArm
					{
						OFFSET 0.000000 -0.000002 14.046600
						CHANNELS 3 Xrotation Yrotation Zrotation
						JOINT LeftArmRoll
						{
							OFFSET 0.000000 -0.000001 7.090973
							CHANNELS 3 Xrotation Yrotation Zrotation
							JOINT LeftForeArm
							{
								OFFSET 0.000000 -0.000003 20.653503
								CHANNELS 3 Xrotation Yrotation Zrotation
								JOINT LeftForeArmRoll
								{
									OFFSET 0.000000 -0.000001 7.957184
									CHANNELS 3 Xrotation Yrotation Zrotation
									JOINT LeftHand
									{
										OFFSET 0.000000 -0.000003 15.968292
										CHANNELS 3 Xrotation Yrotation Zrotation
										End Site
										{
											OFFSET 0.000000 0.000000 0.100006
										}
									}
								}
							}
						}
					}
				}
			}
		}
	}
	JOINT RightUpLeg
	{
		OFFSET -7.208340 1.108840 -1.321823
		CHANNELS 3 Xrotation Yrotation Zrotation
		JOINT RightUpLegRoll
		{
			OFFSET 0.000000 -0.000003 18.723801
			CHANNELS 3 Xrotation Yrotation Zrotation
			JOINT RightLeg
			{
				OFFSET 0.000000 0.000004 -23.186600
				CHANNELS 3 Xrotation Yrotation Zrotation
				JOINT RightLegRoll
				{
					OFFSET 0.000000 -0.000004 23.262398
					CHANNELS 3 Xrotation Yrotation Zrotation
					JOINT RightFoot
					{
						OFFSET 0.000000 -0.000003 19.362099
						CHANNELS 3 Xrotation Yrotation Zrotation
						JOINT RightToeBase
						{
							OFFSET 0.000000 -0.000003 16.185699
							CHANNELS 3 Xrotation Yrotation Zrotation
							End Site
							{
								OFFSET 0.006859 0.903521 7.838623
							}
						}
					}
				}
			}
		}
	}
	JOINT LeftUpLeg
	{
		OFFSET 7.208340 1.108840 -1.321823
		CHANNELS 3 Xrotation Yrotation Zrotation
		JOINT LeftUpLegRoll
		{
			OFFSET 0.000000 -0.000003 18.723900
			CHANNELS 3 Xrotation Yrotation Zrotation
			JOINT LeftLeg
			{
				OFFSET 0.000000 -0.000004 23.186501
				CHANNELS 3 Xrotation Yrotation Zrotation
				JOINT LeftLegRoll
				{
					OFFSET 0.000000 -0.000004 23.477493
					CHANNELS 3 Xrotation Yrotation Zrotation
					JOINT LeftFoot
					{
						OFFSET 0.000000 -0.000003 19.147003
						CHANNELS 3 Xrotation Yrotation Zrotation
						JOINT LeftToeBase
						{
							OFFSET 0.000000 -0.000003 16.185699
							CHANNELS 3 Xrotation Yrotation Zrotation
							End Site
							{
								OFFSET -0.030746 0.903521 7.838623
							}
						}
					}
				}
			}
		}
	}
}
MOTION
Frames: 9
Frame Time: 0.041667
53.201103 -5.987098 96.069496 -1.383521 0.811460 0.028756 -2.131062 -0.368237 0.028667 -0.253783 -0.737184 0.048684 1.391345 -0.736569 0.057561 20.310227 8.935135 -5.892569 4.914509 -1.327195 -5.570481 -18.171471 -11.687401 -21.193432 -129.986109 -182.568388 -74.423449 -0.000001 -0.000002 -0.000008 65.921612 1.395459 5.193288 -0.000002 -0.000003 -3.004420 -5.000189 -7.999717 0.000055 -19.858352 34.507775 23.688846 -142.004264 197.761666 79.686642 0.000001 -0.000007 0.000003 55.889146 -0.717750 -1.690470 0.000001 0.000002 3.002169 -5.000201 7.999240 -0.000107 -3.679487 -173.207887 2.966036 -179.999991 0.000006 -0.937998 171.034494 -1.564655 -0.576822 -0.000001 0.000001 -0.085953 67.716797 6.003373 4.458986 25.456851 -7.355621 -0.000003 -3.227511 172.689503 -1.211352 -0.000020 -0.000005 -0.880641 -12.860103 0.868297 0.704980 -0.000000 0.000002 -0.153384 72.261571 -6.050839 -4.264466 25.459986 7.355620 -0.004517 
53.207603 -5.986806 96.068596 -1.368310 0.817110 0.026998 -2.135004 -0.366941 0.027791 -0.260844 -0.734568 0.046672 1.384284 -0.733975 0.055509 20.312660 8.854673 -5.879459 4.945633 -1.240814 -5.571288 -18.204601 -11.704994 -21.248473 -130.047389 -182.638234 -74.210606 -0.000001 -0.000003 -0.000008 65.956931 1.402107 5.233344 -0.000002 -0.000003 -3.004430 -5.000190 -7.999720 0.000060 -19.878970 34.487056 23.717588 -142.017637 197.747446 79.715432 0.000003 -0.000007 0.000001 55.891185 -0.714468 -1.692202 -0.000001 0.000001 3.002159 -5.000201 7.999243 -0.000111 -3.691863 -173.215974 2.959474 -179.999991 0.000005 -0.937998 171.038483 -1.563688 -0.576558 -0.000001 0.000000 -0.085962 67.717043 6.003916 4.457879 25.456856 -7.355622 -0.000003 -3.241685 172.681608 -1.213390 -0.000019 -0.000005 -0.880679 -12.861605 0.869593 0.704968 -0.000001 0.000002 -0.153442 72.263244 -6.049179 -4.269315 25.459984 7.355620 -0.004517 
53.204605 -5.988709 96.068695 -1.353582 0.822823 0.025494 -2.138943 -0.365773 0.026823 -0.267979 -0.732207 0.044482 1.377153 -0.731635 0.053282 20.317451 8.777503 -5.866559 4.975339 -1.157334 -5.571726 -18.235125 -11.723319 -21.299294 -130.107877 -182.699214 -74.002996 -0.000000 -0.000003 -0.000008 65.986096 1.409679 5.271289 0.000001 -0.000001 -3.004436 -5.000196 -7.999715 0.000060 -19.897485 34.469912 23.743471 -142.028265 197.725207 79.756850 0.000003 -0.000010 0.000003 55.889437 -0.711764 -1.691845 -0.000002 0.000002 3.002151 -5.000205 7.999243 -0.000108 -3.703876 -173.224061 2.952908 -179.999991 0.000006 -0.937998 171.042130 -1.563703 -0.576458 -0.000002 0.000000 -0.085962 67.717391 6.004435 4.456862 25.456854 -7.355620 -0.000002 -3.255522 172.673726 -1.215557 -0.000020 -0.000005 -0.880711 -12.863312 0.870843 0.704986 -0.000002 0.000001 -0.153501 72.265020 -6.047515 -4.274160 25.459986 7.355619 -0.004518 
53.197506 -5.992640 96.068893 -1.339418 0.828560 0.024261 -2.142814 -0.364744 0.025759 -0.275089 -0.730122 0.042115 1.370042 -0.729575 0.050883 20.324054 8.704812 -5.853925 5.003899 -1.078306 -5.571634 -18.263019 -11.741998 -21.345760 -130.166084 -182.749853 -73.807168 0.000001 -0.000001 -0.000008 66.011777 1.417269 5.306894 -0.000001 -0.000002 -3.004461 -5.000193 -7.999715 0.000059 -19.914100 34.456525 23.766529 -142.036912 197.695263 79.807769 0.000001 -0.000008 0.000002 55.884198 -0.709643 -1.689561 -0.000000 0.000002 3.002149 -5.000203 7.999243 -0.000110 -3.715437 -173.232121 2.946379 -179.999991 0.000005 -0.937002 171.045422 -1.562733 -0.576214 -0.000001 -0.000000 -0.085954 67.717924 6.004944 4.455735 25.456854 -7.355622 -0.000003 -3.268942 172.664833 -1.217747 -0.000020 -0.000004 -0.880738 -12.865312 0.872032 0.705042 -0.000001 0.000001 -0.153560 72.267008 -6.045820 -4.279084 25.459984 7.355620 -0.004517 
53.196606 -5.993629 96.068199 -1.325930 0.834283 0.023321 -2.146572 -0.363868 0.024596 -0.282077 -0.728338 0.039575 1.363050 -0.727819 0.048313 20.332119 8.637779 -5.841651 5.031574 -1.005262 -5.570857 -18.287934 -11.760487 -21.387414 -130.220917 -182.788826 -73.627752 0.000001 -0.000001 -0.000008 66.036687 1.423963 5.339955 -0.000002 -0.000003 -3.004470 -5.000191 -7.999718 0.000060 -19.928378 34.447250 23.786443 -142.044111 197.657670 79.868981 0.000001 -0.000007 0.000003 55.875964 -0.708123 -1.685495 -0.000000 0.000001 3.002139 -5.000203 7.999243 -0.000110 -3.726471 -173.240194 2.939954 -179.999991 0.000005 -0.937001 171.048304 -1.561758 -0.576977 -0.000001 0.000001 -0.085936 67.718771 6.005376 4.454673 25.456858 -7.355624 -0.000002 -3.281833 172.656937 -1.220066 -0.000020 -0.000004 -0.880757 -12.867618 0.873150 0.705141 -0.000002 0.000001 -0.153620 72.269098 -6.044156 -4.283913 25.459986 7.355623 -0.004518 
53.197105 -6.002040 96.066589 -1.313201 0.839951 0.022693 -2.150143 -0.363154 0.023331 -0.288842 -0.726879 0.036862 1.356289 -0.726389 0.045576 20.341000 8.577585 -5.829786 5.058640 -0.939724 -5.569230 -18.309748 -11.778402 -21.423800 -130.270969 -182.814781 -73.470426 0.000002 -0.000003 -0.000008 66.063406 1.428861 5.370263 -0.000003 -0.000001 -3.004479 -5.000190 -7.999716 0.000059 -19.940317 34.442499 23.803011 -142.050709 197.612782 79.938335 0.000000 -0.000009 0.000001 55.864947 -0.707227 -1.679818 0.000000 0.000002 3.002131 -5.000208 7.999241 -0.000107 -3.736903 -173.248267 2.933685 -179.999991 0.000005 -0.937001 171.050722 -1.560770 -0.576754 -0.000001 0.000000 -0.085905 67.719891 6.005737 4.453682 25.456856 -7.355622 -0.000003 -3.294093 172.649041 -1.222424 -0.000020 -0.000005 -0.880769 -12.870223 0.874182 0.705286 -0.000001 0.000001 -0.153681 72.271413 -6.042489 -4.288627 25.459989 7.355620 -0.004518 
53.194004 -6.002679 96.066696 -1.301321 0.845526 0.022397 -2.153463 -0.362617 0.021963 -0.295287 -0.725767 0.033978 1.349838 -0.725310 0.042674 20.350345 8.525408 -5.818427 5.085365 -0.883234 -5.566605 -18.328220 -11.795300 -21.454722 -130.314818 -182.826365 -73.340891 0.000001 -0.000003 -0.000008 66.094791 1.431085 5.397607 -0.000004 -0.000003 -3.004488 -5.000187 -7.999718 0.000058 -19.949811 34.442349 23.816204 -142.057293 197.560831 80.014710 0.000001 -0.000008 0.000001 55.851734 -0.706970 -1.672687 -0.000003 0.000002 3.002123 -5.000203 7.999241 -0.000108 -3.746665 -173.255316 2.927531 -179.999991 0.000007 -0.937001 171.052607 -1.560779 -0.576703 -0.000001 0.000001 -0.085864 67.721339 6.006097 4.452674 25.456858 -7.355620 -0.000003 -3.305647 172.641132 -1.224798 -0.000019 -0.000004 -0.880772 -12.873026 0.875120 0.705482 -0.000001 0.000001 -0.153742 72.273845 -6.040914 -4.293050 25.459988 7.355619 -0.004517 
53.203003 -6.007040 96.067589 -1.290392 0.850967 0.022453 -2.156484 -0.362266 0.020486 -0.301315 -0.725029 0.030925 1.343817 -0.724606 0.039608 20.359710 8.482423 -5.807642 5.112004 -0.837325 -5.562817 -18.343001 -11.810627 -21.479606 -130.351059 -182.822280 -73.244852 -0.000000 -0.000001 -0.000007 66.133395 1.429736 5.421796 -0.000005 -0.000001 -3.004501 -5.000192 -7.999718 0.000058 -19.956734 34.447263 23.825658 -142.064479 197.501928 80.096932 0.000002 -0.000009 0.000002 55.836547 -0.707369 -1.664240 -0.000000 0.000003 3.002110 -5.000204 7.999243 -0.000110 -3.755667 -173.263376 2.921705 -179.999991 0.000006 -0.937002 171.053946 -1.559801 -0.576512 -0.000001 0.000001 -0.085810 67.723088 6.006421 4.451546 25.456860 -7.355622 -0.000003 -3.316384 172.633223 -1.227173 -0.000020 -0.000005 -0.880764 -12.876130 0.875947 0.705734 -0.000002 0.000001 -0.153804 72.276433 -6.039458 -4.297081 25.459983 7.355621 -0.004518 
53.197803 -6.009753 96.066696 -1.279942 0.856407 0.022900 -2.159384 -0.362143 0.018799 -0.307337 -0.724736 0.027502 1.337797 -0.724353 0.036179 20.370284 8.448479 -5.797384 5.138563 -0.800724 -5.557878 -18.353437 -11.823853 -21.497245 -130.380484 -182.802500 -73.173258 0.000002 -0.000002 -0.000008 66.176064 1.425906 5.443176 -0.000000 -0.000002 -3.004520 -5.000189 -7.999718 0.000057 -19.961610 34.456918 23.832337 -142.070872 197.434568 80.189515 0.000002 -0.000008 0.000001 55.819858 -0.708133 -1.653898 -0.000000 0.000001 3.002113 -5.000202 7.999243 -0.000111 -3.764575 -173.270411 2.915766 -179.999991 0.000006 -0.937001 171.054534 -1.557832 -0.576185 -0.000001 -0.000000 -0.085743 67.725403 6.006557 4.450647 25.456858 -7.355623 -0.000002 -3.326944 172.626310 -1.229587 -0.000020 -0.000005 -0.880748 -12.879833 0.876690 0.706053 -0.000002 0.000002 -0.153866 72.279234 -6.038003 -4.301203 25.459984 7.355621 -0.004518 
